<?xml version="1.0" encoding="utf-8"?>
<!-- Generator: Adobe Illustrator 26.5.0, SVG Export Plug-In . SVG Version: 6.00 Build 0)  -->
<svg version="1.1" id="Capa_1" xmlns="http://www.w3.org/2000/svg" xmlns:xlink="http://www.w3.org/1999/xlink" x="0px" y="0px"
	 viewBox="0 0 128 128" style="enable-background:new 0 0 128 128;" xml:space="preserve">
<style type="text/css">
	.st0{fill:#F4F4F5;}
</style>
<g>
	<path class="st0" d="M125.8,81.1c5.1-19,1.1-38.3-9.4-53.2c-8.3-12-20.7-21.1-35.8-25.2C65.4-1.4,50.1,0.4,36.9,6.5l0,0
		C20.4,14.3,7.3,28.9,2.2,47.9s-1.1,38.3,9.4,53.2c8.3,11.9,20.7,21.1,35.9,25.1c15.1,4.1,30.5,2.3,43.6-3.8
		C107.6,114.7,120.7,100,125.8,81.1z M94.8,106.7c-3,2.2-6.2,4-9.6,5.5c-10.5,4.7-22.7,5.9-34.7,2.7c-1.2-0.3-2.3-0.7-3.4-1
		c-1.3-0.4-2.5-0.9-3.7-1.4c-3.7-1.6-7.1-3.5-10.2-5.8c-1.1-0.8-2.1-1.6-3.1-2.5c-0.8-0.7-1.6-1.4-2.3-2.1c-2.2-2.1-4.2-4.4-6-6.9
		c-2.2-3-4-6.2-5.5-9.6c-4.8-10.4-6-22.6-2.8-34.6s10.4-22,19.7-28.7c3-2.2,6.2-4,9.6-5.5c10.5-4.8,22.7-6,34.7-2.8
		c0.3,0.1,0.6,0.2,1,0.3c1,0.3,2,0.6,3,1c1.3,0.4,2.5,0.9,3.7,1.5c3.6,1.6,7,3.6,10.1,5.9c1.1,0.8,2.1,1.6,3.1,2.5
		c3,2.6,5.6,5.5,7.9,8.6c2.2,3,4,6.2,5.5,9.6c4.7,10.5,5.9,22.7,2.7,34.7S104.1,100,94.8,106.7z"/>
	<g>
		<path class="st0" d="M91,100.7c-2.9,2.1-6,3.9-9.2,5.3l-5.7-9.9l-9.6-16.7l6.1-10.6l12.7,22c5.4-4.3,9.5-10.4,11.4-17.5
			c1.9-7.2,1.4-14.4-1.1-20.9c-1.3-3.3-3.1-6.4-5.3-9.2c-0.5-0.7-1.1-1.3-1.7-2c-0.9-0.9-1.8-1.8-2.8-2.7l-39.1,67.7
			c-3.6-1.5-6.8-3.4-9.8-5.6l44.9-77.7c3.5,1.5,6.8,3.4,9.8,5.7c1,0.8,2,1.6,2.9,2.5c2.1,1.9,4.1,4.1,5.8,6.4c2.1,2.9,3.9,6,5.3,9.2
			c3.9,9,4.9,19.3,2.1,29.5C104.9,86.4,98.9,94.8,91,100.7z"/>
	</g>
	<g>
		<path class="st0" d="M42.7,38.2c-5.4,4.3-9.5,10.4-11.4,17.5c-1.9,7.2-1.4,14.4,1.1,20.9c1.3,3.3,3.1,6.4,5.3,9.2l0,0
			c0.6,0.8,1.3,1.6,2.1,2.3L34,98.2c-0.8-0.7-1.5-1.4-2.2-2.1c-1.4-1.5-2.7-3-3.9-4.6c-2.1-2.9-3.9-6-5.3-9.2
			c-3.9-9-4.9-19.3-2.1-29.5c2.7-10.2,8.7-18.6,16.6-24.5c2.9-2.1,6-3.9,9.2-5.3l5.7,9.9l8.2,14.2l1.7,2.9l-6.1,10.6l-1.7-2.9
			L42.7,38.2z"/>
	</g>
</g>
</svg>
