<?xml version="1.0" encoding="utf-8"?>
<!-- Generator: Adobe Illustrator 26.5.0, SVG Export Plug-In . SVG Version: 6.00 Build 0)  -->
<svg version="1.1" id="Capa_1" xmlns="http://www.w3.org/2000/svg" xmlns:xlink="http://www.w3.org/1999/xlink" x="0px" y="0px"
	 viewBox="0 0 375 375" style="enable-background:new 0 0 375 375;" xml:space="preserve">
<style type="text/css">
	.st0{fill:#525252;}
</style>
<g>
	<path class="st0" d="M366.5,235.7c14.9-55.1,3.2-111-27.1-154.2c-24.1-34.8-59.9-61.5-103.8-73c-44-11.9-88.5-6.6-126.7,11.1l0,0
		C61.1,42,23.1,84.4,8.4,139.5s-3.2,111,27.1,154.2c24.1,34.6,59.9,61.1,104,72.8c43.8,11.9,88.5,6.6,126.7-11.1
		C313.6,333,351.6,290.8,366.5,235.7z M276.6,309.9c-8.6,6.4-17.9,11.7-27.8,15.9c-30.4,13.7-65.8,17.1-100.5,7.8
		c-3.4-0.8-6.6-2-9.9-2.8c-3.8-1.2-7.2-2.6-10.7-4c-10.7-4.6-20.5-10.1-29.6-16.9c-3.2-2.4-6-4.6-9-7.2c-2.4-2-4.6-4-6.6-6
		c-6.4-6-12.3-12.7-17.3-19.9c-6.4-8.6-11.7-17.9-15.9-27.8c-13.7-30.4-17.1-65.8-7.8-100.5s30.2-63.5,57.1-83.3
		c8.6-6.4,17.9-11.7,27.8-15.9c30.4-13.7,65.8-17.1,100.5-7.8c0.8,0.2,1.8,0.6,2.8,0.8c2.8,0.8,5.8,1.8,8.6,2.8
		c3.8,1.2,7.2,2.6,10.7,4.4c10.5,4.6,20.3,10.5,29.4,17.1c3.2,2.4,6,4.6,9,7.2c8.6,7.4,16.3,15.9,22.9,24.9
		c6.4,8.6,11.7,17.9,15.9,27.8c13.7,30.4,17.1,65.8,7.8,100.5C324.5,261.4,303.6,290.4,276.6,309.9z"/>
	<g>
		<path class="st0" d="M265.6,292.4c-8.4,6-17.3,11.3-26.7,15.3l-16.5-28.8l-27.8-48.1l17.7-30.8l36.8,63.7
			c15.7-12.7,27.5-30.2,33-51.1s4-41.8-3.2-60.5c-3.8-9.7-9-18.5-15.3-26.7c-1.4-2-3.2-3.8-5-5.8c-2.6-2.6-5.2-5.2-8-7.8
			L137.1,308.1c-10.5-4.4-19.7-9.9-28.4-16.3L238.8,66.5c10.1,4.4,19.7,9.9,28.4,16.5c2.8,2.4,5.8,4.6,8.4,7.2
			c6,5.4,11.9,11.9,16.9,18.5c6,8.4,11.3,17.3,15.3,26.7c11.3,26.1,14.3,55.9,6,85.5C305.8,250.9,288.5,275.3,265.6,292.4z"/>
	</g>
	<g>
		<path class="st0" d="M125.6,111.4c-15.7,12.5-27.5,29.8-33,50.7s-4,41.8,3.2,60.5c3.8,9.7,9,18.5,15.3,26.7l0,0
			c1.8,2.4,3.8,4.6,6,6.6l-16.9,29.4c-2.4-2-4.4-4-6.4-6c-4-4.4-7.8-8.6-11.3-13.3c-6-8.4-11.3-17.3-15.3-26.7
			c-11.3-26.1-14.3-55.9-6-85.5c7.8-29.6,25.1-53.9,48.1-71c8.4-6,17.3-11.3,26.7-15.3l16.5,28.8l23.7,41.2l5,8.4l-17.7,30.8l-5-8.4
			L125.6,111.4z"/>
	</g>
</g>
</svg>
